<svg width="105" height="105" viewBox="0 0 105 105" fill="none" xmlns="http://www.w3.org/2000/svg">
<g opacity="0.5">
<path d="M59.3955 0.94397C60.9514 6.88488 60.5271 9.85543 52.3229 16.6452C44.1188 23.4349 42.8457 23.5762 42.8457 27.8197C42.8457 32.0631 49.1403 38.7821 52.1814 40.6918C52.1814 40.6918 51.6864 39.4894 50.5548 37.6507C49.4231 35.812 45.9577 32.6999 46.5941 27.9614C47.2304 23.2228 57.2383 17.1757 59.8198 12.6139C62.4011 8.05177 61.8002 4.19733 59.3955 0.94397Z" fill="#848484"/>
<path d="M68.4486 15.9374C61.3761 18.2714 52.6061 21.949 52.6061 29.0923C52.6061 36.2356 57.1324 34.8917 57.1324 38.7109C57.1324 42.5301 54.6569 43.6617 54.6569 43.6617C54.6569 43.6617 61.1636 41.1862 60.8808 36.2354C60.598 31.2846 56.7081 31.9919 56.7081 27.3947C56.7081 21.5758 68.4486 15.9374 68.4486 15.9374Z" fill="#848484"/>
<path d="M43.4118 41.2575C36.3393 41.2575 31.4592 43.8743 31.4592 45.3595C31.4592 46.8447 40.1584 48.2593 49.565 47.6228C58.9715 46.9862 63.9223 46.2083 67.6707 43.9449C67.6707 43.9449 61.0225 45.5008 55.9302 45.5008C50.8379 45.5008 36.2849 46.4109 36.6223 44.2277C36.9596 42.0446 45.3924 41.2573 45.3924 41.2573L43.4118 41.2575Z" fill="#848484"/>
<path d="M40.7949 49.5325C37.0464 50.8763 36.0561 52.22 38.2488 53.6346C40.4413 55.0491 44.7555 55.4734 50.6964 55.4734C56.6374 55.4734 64.9125 53.4222 64.9125 53.4222L62.2249 51.3002C62.2249 51.3002 58.547 52.6441 51.5453 52.6441C44.5435 52.6441 37.5062 52.8213 40.7949 49.5325Z" fill="#848484"/>
<path d="M42.4923 57.524C38.8144 58.7972 38.0366 60.4944 41.2899 62.0503C44.5433 63.6062 50.7672 63.889 55.3642 63.2527C59.9613 62.6163 63.8512 61.2015 63.8512 61.2015C63.8512 61.2015 61.3404 60.2467 60.1733 59.0796C60.1733 59.0796 54.7982 60.2112 49.7059 60.2112C44.6136 60.2112 40.5121 59.5043 42.4923 57.524Z" fill="#848484"/>
<path d="M69.9333 41.6817C69.9333 41.6817 71.7013 39.2769 76.1572 41.1158C80.613 42.9546 80.4715 47.9056 76.44 50.8759C72.4086 53.8463 67.5286 54.8366 67.5286 54.8366C67.5286 54.8366 76.5815 50.8759 76.3693 45.9959C76.1572 41.116 71.9841 41.2575 69.9333 41.6817Z" fill="#848484"/>
<path d="M33.7222 67.4248C47.6558 69.9709 68.8734 67.3547 72.6206 66.4361C76.3699 65.5153 74.9971 63.5207 74.9971 63.5207C75.9136 64.168 76.321 64.8808 75.9456 65.6575C73.8937 69.9009 54.3736 70.6074 48.6447 70.6074C42.9159 70.6074 25.5175 70.2551 25.5175 67.1426C25.5175 64.0683 33.7265 62.167 36.7904 62.8737C31.0275 64.5224 27.6072 66.3067 33.7222 67.4248Z" fill="#848484"/>
<path d="M35.3138 71.9699C35.3138 71.9699 40.2469 75.736 64.8062 73.5612C74.6194 72.7654 78.7038 70.3254 79.2343 67.6202C79.2343 67.6202 74.7255 70.1663 69.1557 71.2274C63.5864 72.2884 54.4096 73.9328 35.3138 71.9699Z" fill="#848484"/>
<path d="M34.8386 77.4147H30.7609C30.8509 80.8368 30.9409 83.8433 30.9409 86.9676C30.9409 89.3484 30.8509 92.1448 30.8509 94.9413C30.8509 96.7884 30.4288 98.3462 29.5737 99.7413C30.5316 100.208 31.5065 100.646 32.4964 101.053C33.9621 99.2785 34.7958 97.0778 34.7486 94.3178C34.6885 92.055 34.6885 89.1406 34.6885 86.9678C34.6885 83.7233 34.7486 80.569 34.8386 77.4147Z" fill="#848484"/>
<path d="M62.2953 83.1872L59.8245 90.5072C59.3789 91.8466 59.051 93.1259 58.7532 94.4051H58.4854C58.2774 93.0959 57.9797 91.9065 57.4739 90.5072L56.6704 88.1564C56.0747 86.4914 55.569 84.7343 55.1233 83.0393L51.0177 83.545L56.7305 98.3629L59.6769 98.0652L63.1568 89.0501C63.8426 87.2951 64.7339 85.2101 65.5675 83.3652L62.2953 83.1872Z" fill="#848484"/>
<path d="M73.7595 83.0376C72.0945 83.0376 70.1895 83.3955 67.6609 84.7947L68.3145 87.1154L68.5523 87.2632C70.1895 86.074 71.6488 85.5082 72.778 85.5082C74.2951 85.5082 75.4266 86.5196 75.4266 88.1289V89.436C68.9102 90.4196 67.303 92.4425 67.303 94.7931C67.303 97.2639 69.0601 98.601 71.0229 98.601C72.6601 98.601 74.0872 97.6195 75.3687 96.5481L75.6345 96.6082C75.9003 97.9453 76.7832 98.4511 77.7601 98.5325C78.1865 98.2989 78.6108 98.059 79.0288 97.8125V87.681C79.0288 84.557 77.1537 83.0376 73.7595 83.0376ZM75.4268 94.7334C74.3575 95.6571 73.464 96.1327 72.6603 96.1327C71.6488 96.1327 70.8152 95.4791 70.8152 94.1977C70.8152 92.8284 71.7366 91.817 75.4266 91.2813V94.7334H75.4268Z" fill="#848484"/>
<path d="M44.0941 83.0393C42.4291 83.0393 40.5241 83.3951 37.9935 84.7944L38.6491 87.115L38.887 87.2649C40.5241 86.0734 41.9812 85.5078 43.1126 85.5078C44.6298 85.5078 45.7612 86.5193 45.7612 88.1265V89.4357C39.2449 90.4192 37.6377 92.4421 37.6377 94.7927C37.6377 97.2635 39.3927 98.6006 41.3576 98.6006C42.9927 98.6006 44.4219 97.6191 45.7011 96.5478L45.969 96.6079C46.2667 98.1251 47.3682 98.5729 48.4976 98.5428C48.7761 98.5428 49.0675 98.5085 49.3612 98.4464V87.6806C49.3612 84.5565 47.4861 83.0393 44.0941 83.0393ZM45.7612 94.7329C44.6899 95.6565 43.7962 96.1321 42.9927 96.1321C41.9812 96.1321 41.1476 95.4765 41.1476 94.1972C41.1476 92.8279 42.0712 91.8164 45.7612 91.2808V94.7329Z" fill="#848484"/>
</g>
</svg>
