<svg width="105" height="105" viewBox="0 0 105 105" fill="none" xmlns="http://www.w3.org/2000/svg">
<g opacity="0.5">
<path d="M105 52.5C105 57.8271 104.207 62.9701 102.731 67.815C102.731 67.8171 102.731 67.8171 102.729 67.8193C101.025 73.41 98.4174 78.6044 95.0701 83.2308V83.2328C90.2979 89.8306 84.0279 95.2756 76.7616 99.0685C74.6208 100.187 72.3944 101.162 70.0951 101.979C68.2307 102.643 66.3171 103.202 64.3609 103.654H64.3588C60.5464 104.535 56.58 105 52.5 105C43.9821 105 35.9399 102.973 28.8278 99.3729C22.1786 96.0086 16.3414 91.2706 11.6936 85.5321C7.46792 80.3207 4.22358 74.2842 2.23494 67.7014C0.782168 62.8907 0 57.7865 0 52.5C0 23.505 23.505 0 52.5 0C81.495 0 105 23.505 105 52.5Z" fill="#F2F2F2"/>
<path d="M76.3134 22.9245V48.8232C76.3134 54.9196 71.3721 59.8611 65.2755 59.8611H38.7448C31.0755 59.8611 24.8591 66.0797 24.8591 73.749V86.469H16.1847C14.6141 86.469 13.1055 86.1583 11.6933 85.5326C7.4677 80.3212 4.22336 74.2847 2.23472 67.7019C2.07824 66.0777 1.99683 64.3439 1.99683 62.5011C1.99683 46.4105 8.35035 38.5332 16.1847 38.5332H52.6454V34.7961H28.3797V22.9247C28.3797 16.8969 39.111 12.009 52.3476 12.009C65.5842 12.009 76.3134 16.8967 76.3134 22.9245Z" fill="#5B53A2"/>
<path d="M38.8261 28.3267C41.262 28.3267 43.2366 26.3521 43.2366 23.9163C43.2366 21.4805 41.262 19.5059 38.8261 19.5059C36.3903 19.5059 34.4157 21.4805 34.4157 23.9163C34.4157 26.3521 36.3903 28.3267 38.8261 28.3267Z" fill="#F2F2F2"/>
<path d="M103.144 61.1185C103.144 63.5355 103 65.7684 102.73 67.8149C102.73 67.8169 102.73 67.8169 102.728 67.8192C101.025 73.4098 98.417 78.6042 95.0697 83.2306V83.2327C93.2182 84.4691 91.1461 85.0841 88.9583 85.0841H52.4977V88.8233H76.7613V99.0684C74.6205 100.187 72.3942 101.162 70.0948 101.978C68.2305 102.643 66.3169 103.202 64.3607 103.654H64.3586C60.5462 104.535 56.5798 105 52.4998 105C43.9818 105 35.9397 102.973 28.8276 99.3727V74.7963C28.8276 68.7 33.7712 63.7564 39.8676 63.7564H66.3983C74.0676 63.7564 80.2839 57.5398 80.2839 49.8707V37.1508H88.9581C96.7925 37.1506 103.144 44.8648 103.144 61.1185Z" fill="#B6B6B6"/>
<path d="M70.7271 99.7029C70.7271 100.536 70.4958 101.316 70.095 101.979C68.2307 102.643 66.3171 103.202 64.3608 103.654H64.3588C62.906 102.934 61.9073 101.434 61.9073 99.7029C61.9073 97.2665 63.881 95.2928 66.3173 95.2928C68.7534 95.2928 70.7271 97.2665 70.7271 99.7029Z" fill="#F2F2F2"/>
</g>
</svg>
