<svg width="105" height="105" viewBox="0 0 105 105" fill="none" xmlns="http://www.w3.org/2000/svg">
<g opacity="0.5">
<path d="M75.4608 15.9174C75.4608 15.9174 76.9825 17.4825 77.2431 18.6562C77.2431 18.6562 78.33 17.8301 77.5909 16.526C76.8519 15.2217 75.4608 15.9174 75.4608 15.9174Z" fill="#5B53A2"/>
<path d="M103.256 39.0303C101.889 38.3424 100.646 37.9354 99.6731 37.6952C98.3573 37.3696 97.2923 36.401 96.8317 35.126C96.2403 33.4909 95.1388 30.8423 93.1118 26.829C89.1111 18.9174 84.6776 16.4832 81.7654 14.439C79.8541 13.0975 77.3425 12.8254 75.8426 12.7955C75.0863 12.7805 74.3576 12.504 73.7768 12.0176C72.249 10.732 69.2446 9.22115 68.2889 9.78696C67.1147 10.4834 68.2889 12.0927 69.939 14.1348C71.5911 16.179 71.9404 18.4398 73.1126 21.4828C73.6548 22.8863 74.3084 23.7349 74.8527 24.2407C75.4226 24.772 75.609 25.597 75.3069 26.3128C74.2054 28.9164 73.8369 32.2141 74.4606 35.2634C75.1999 38.872 76.8948 38.8291 76.8948 38.8291C76.7213 34.0034 79.2434 31.9163 79.2434 31.9163C81.547 38.9577 86.8077 44.2186 86.8077 44.2186C82.5476 42.6971 79.3742 35.7414 79.3742 35.7414C79.3742 35.7414 79.027 36.0886 78.7227 38.3943C78.4184 40.698 75.6348 42.0886 73.5927 37.0466C71.5485 32.0023 74.2011 25.6551 74.2011 25.6551C73.0269 25.0464 70.5926 19.4388 70.5926 18.5686C70.5926 17.7007 69.6347 15.7871 68.4626 14.6129C67.2884 13.4406 64.9847 10.0486 67.6805 8.4843C70.374 6.91792 75.7226 11.1349 75.7226 11.1349C84.1569 10.8306 92.8505 21.0907 94.2412 24.7421C95.6318 28.3935 99.5447 35.6986 99.5447 35.6986C100.655 36.0351 101.698 36.4701 102.665 36.9649C102.875 37.646 103.072 38.3359 103.256 39.0303Z" fill="#5B53A2"/>
<path d="M104.844 48.4095C104.801 48.3903 104.76 48.3687 104.719 48.3495C102.024 47.0445 100.937 44.3059 100.937 44.3059C101.636 43.6074 102.874 43.2067 104.139 42.9795C104.252 43.6009 104.355 44.2245 104.445 44.8523C103.974 44.9443 103.676 45.0001 103.676 45.0001C103.676 45.2659 104.047 45.6623 104.614 46.1166C104.709 46.8752 104.784 47.6403 104.844 48.4095Z" fill="#5B53A2"/>
<path d="M27.3517 76.8344H23.2437C23.2437 76.8344 23.2437 67.4465 21.8744 56.2952L15.418 76.8344H12.0924L5.53954 56.3936C5.53954 56.3936 4.77665 62.4 4.67165 74.1815C3.23159 71.0102 2.09813 67.6715 1.3096 64.2022C1.61168 59.8414 2.03599 55.0885 2.6061 51.2101H7.95249L14.0489 70.1851L20.5053 51.2101H25.3954C25.3952 51.2101 27.3517 67.935 27.3517 76.8344Z" fill="#5B53A2"/>
<path d="M29.6182 58.1299L33.8567 58.0647C33.8567 58.0647 38.617 72.3457 38.1607 74.1063C38.1607 74.1063 41.2256 65.5638 42.0082 58.0647H46.1815C46.1815 58.0647 43.9642 73.1935 37.1827 81.1491C34.6448 84.1262 31.7969 84.1627 29.2259 83.0432V80.758C29.2259 80.758 32.7485 81.9971 34.5745 79.3885C36.0445 77.2885 34.6405 73.6672 33.3568 69.8173C33.0454 68.885 29.6182 58.1299 29.6182 58.1299Z" fill="#5B53A2"/>
<path d="M48.7896 74.9545L49.898 72.7372C49.898 72.7372 57.5277 76.128 59.4838 72.7372C61.44 69.3464 59.549 67.5204 55.7017 65.4988C51.8545 63.4771 47.8114 60.9341 49.572 55.3911C51.3328 49.8482 60.6577 50.2395 63.3313 52.9131L62.4185 55.065C62.4185 55.065 55.5063 52.1305 53.6153 55.9778C51.7242 59.8251 56.7454 61.6511 57.9192 62.1728C59.0931 62.6945 65.614 65.3679 64.8968 70.1284C64.1797 74.8889 61.245 77.8231 54.5285 77.2362C52.1151 76.6499 50.7458 76.2586 48.7896 74.9545Z" fill="#B6B6B6"/>
<path d="M83.1492 75.2638C86.0314 72.9475 87.2678 68.8266 87.2678 64.1295C87.2678 56.8845 85.1828 51.0109 76.9456 51.0109C69.8528 51.0109 66.6234 56.8845 66.6234 64.1295C66.6234 71.3745 68.9849 77.2481 76.9456 77.2481C78.0986 77.2481 79.1443 77.1046 80.087 76.8345L86.2199 80.4324L87.7198 77.4967L83.1492 75.2638ZM76.9456 74.1066C72.3299 74.1066 70.9606 69.6387 70.9606 64.1295C70.9606 58.618 72.2655 54.1525 76.9456 54.1525C81.7198 54.1525 82.9286 58.6182 82.9286 64.1295C82.9284 69.6387 81.7198 74.1066 76.9456 74.1066Z" fill="#B6B6B6"/>
<path d="M100.506 73.7808C100.037 74.8437 99.5289 75.8871 98.9911 76.9115H90.9148V51.347H94.9583V73.7805H100.506V73.7808Z" fill="#B6B6B6"/>
</g>
</svg>
