<svg width="105" height="105" viewBox="0 0 105 105" fill="none" xmlns="http://www.w3.org/2000/svg">
<g opacity="0.5">
<path d="M26.6954 36.5531H7.36041L1.8512 66.3645C3.0427 70.7296 4.78258 74.8674 6.9962 78.701H8.78981L10.9241 67.1553H21.5483C34.4847 67.1553 37.9626 55.5411 38.7962 49.8366C39.6319 44.1344 35.4598 36.5531 26.6954 36.5531ZM29.5004 50.7987C29.0269 54.0323 26.6376 60.6172 19.3048 60.6172H12.1326L15.3384 43.2665H22.6391C29.7556 43.2665 29.974 47.5652 29.5004 50.7987Z" fill="#5B53A2"/>
<path d="M102.945 37.9073C101.301 37.0587 99.3426 36.553 97.0797 36.553H77.7448L69.9555 78.701H79.1739L81.3082 67.1553H91.9325C97.6861 67.1553 101.569 64.8583 104.177 61.8047C104.717 58.7853 105 55.6759 105 52.5003C105 47.4367 104.282 42.5402 102.945 37.9073ZM99.8848 50.7987C99.4113 54.0324 97.0219 60.6173 89.6869 60.6173H82.5169L85.7227 43.2666H93.0235C100.14 43.2666 100.358 47.5653 99.8848 50.7987Z" fill="#5B53A2"/>
<path d="M63.4174 36.6926C59.6655 36.6926 54.6598 36.6926 52.2208 36.6926L54.3224 25.3208H45.1419L37.3524 67.4677H46.533L51.0125 43.2303C52.6675 43.2303 54.8659 43.2303 56.8798 43.2303C60.7744 43.2303 63.4174 44.0649 62.8609 47.6815C62.3045 51.2981 59.1053 67.2944 59.1053 67.2944H68.4248C68.4248 67.2944 72.0414 49.4899 72.5978 44.4821C73.1543 39.4745 68.5641 36.6926 63.4174 36.6926Z" fill="#5B53A2"/>
</g>
</svg>
