<svg width="104" height="105" viewBox="0 0 104 105" fill="none" xmlns="http://www.w3.org/2000/svg">
<g opacity="0.5">
<path d="M79.4323 47.7772C77.985 43.5394 72.0505 43.5394 70.8929 47.0465C69.7351 50.5535 73.643 52.5992 79.722 54.6452C85.8009 56.6911 89.5642 62.098 88.8404 66.92C88.1167 71.742 86.0903 78.0258 74.0773 78.0258C66.5692 78.0258 62.3966 73.2879 60.3229 69.7347L67.1298 65.6048C67.1298 65.6048 69.4457 70.5733 73.7877 70.5733C78.1299 70.5733 79.8666 69.1121 79.8666 65.7511C79.8666 61.6595 65.827 60.1984 63.656 53.1841C61.485 46.1698 64.3797 36.2331 74.5112 36.9636C80.8436 37.4203 84.4054 40.5597 86.1864 42.85L79.4323 47.7772Z" fill="#5B53A2"/>
<path d="M47.8794 37.6947C47.8794 37.6947 47.8794 62.3904 47.8794 65.7514C47.8794 69.1123 44.9847 70.8661 42.0899 70.2814C39.1952 69.6969 37.8926 66.1899 37.8926 66.1899L31.2347 70.7199C31.2347 70.7199 32.682 77.4417 41.8005 78.0264C50.919 78.6109 56.1293 73.058 56.1293 68.3818C56.1293 63.7056 56.1293 37.6947 56.1293 37.6947H47.8794Z" fill="#5B53A2"/>
<path d="M15.0249 9.27234V89.413C17.1793 91.6159 19.5266 93.6236 22.0397 95.4152H81.9607C83.9686 93.9837 85.8703 92.4131 87.6553 90.7138H19.6816V13.9738H95.6885V80.983C97.5223 78.1244 99.0866 75.0731 100.347 71.8673V9.27234H15.0249Z" fill="#5B53A2"/>
<path d="M17.8454 77.8798C22.4017 77.8798 26.0953 74.1507 26.0953 69.5506C26.0953 64.9504 22.4017 61.2213 17.8454 61.2213C13.289 61.2213 9.59543 64.9504 9.59543 69.5506C9.59543 74.1507 13.289 77.8798 17.8454 77.8798Z" fill="#B6B6B6"/>
</g>
</svg>
