<svg width="105" height="105" viewBox="0 0 105 105" fill="none" xmlns="http://www.w3.org/2000/svg">
<g opacity="0.5">
<path d="M90.6429 24.5015L84.6493 94.0072C75.7671 100.899 64.6136 105 52.5 105C40.4958 105 29.4343 100.971 20.5907 94.1913L14.5821 24.5015H90.6429Z" fill="#5B53A2"/>
<path d="M52.612 31.0178V103.394L77.6139 96.3354L83.191 31.0178H52.612Z" fill="#B6B6B6"/>
<path d="M28.8963 40.0986L31.348 69.1301H63.9355L62.8693 81.1225L52.6127 83.9L41.9304 80.9075L41.6622 73.4306H31.7116L32.9572 88.1716L52.6127 93.7266L72.268 88.1716L74.7039 59.3282H40.3858L39.5341 49.9276L39.5339 49.9272L75.5152 49.7387L76.329 40.0986H28.8963Z" fill="white"/>
<path d="M30.9992 3.44458V8.43229H26.2336V3.44458H21.8002V17.742H26.2336V13.0871H30.9992V17.742H35.4326V3.44458H30.9992Z" fill="#B6B6B6"/>
<path d="M51.1714 3.44458H37.5386V8.43229H41.972V17.8532H46.738V8.43229H51.1714V3.44458Z" fill="#B6B6B6"/>
<path d="M76.5524 13.3086V3.55554H71.7864V13.3086V17.8532H76.5524H83.4238V13.3086H76.5524Z" fill="#B6B6B6"/>
<path d="M64.5819 3.55554L61.2572 8.65378L57.9321 3.55554H53.1663V17.8532H57.9321V10.7595L61.2572 15.8582L64.5819 10.7595V17.8532H69.348V3.55554H64.5819Z" fill="#B6B6B6"/>
</g>
</svg>
