<svg width="105" height="105" viewBox="0 0 105 105" fill="none" xmlns="http://www.w3.org/2000/svg">
<g opacity="0.5">
<path d="M90.643 24.5015L84.6494 94.0072C75.7673 100.899 64.6137 105 52.5002 105C40.3866 105 29.233 100.899 20.3509 94.0072L14.3573 24.5015H90.643Z" fill="#5B53A2"/>
<path d="M52.4993 31.0363V103.625L77.5746 96.5462L83.1683 31.0363H52.4993Z" fill="#B6B6B6"/>
<path d="M74.6557 59.4289H56.5707L75.4684 49.8114L76.285 40.1432H28.7135L29.5459 50.0003H48.6421L30.3196 59.1617L31.1721 69.2596H63.8563L62.7849 81.286L52.4992 84.0717L41.7849 81.0717L41.5171 73.5717H31.5364L32.7849 88.3575L52.4992 93.9288L72.2134 88.3575L74.6563 59.4273L74.6557 59.4289Z" fill="white"/>
<path d="M33.9101 13.7863V6.92914H43.7671V3.21497H30.3386V17.5005H43.7671V13.7863H33.9101Z" fill="#B6B6B6"/>
<path d="M49.5348 8.80417V7.08971H59.3386V6.92914V3.21497H45.9099V12.0719H55.5348V13.7863H45.9099V17.5005H59.3386V13.7863V8.80417H49.5348Z" fill="#B6B6B6"/>
<path d="M64.8562 8.80417V7.08971H74.6598V6.92914V3.21497H61.2313V12.0719H70.8562V13.7863H61.2313V17.5005H74.6598V13.7863V8.80417H64.8562Z" fill="#B6B6B6"/>
</g>
</svg>
